<svg xmlns="http://www.w3.org/2000/svg" viewBox="0 0 24 24" fill="#0F766E">
  <path d="M12 2C6.48 2 2 6.48 2 12C2 17.52 6.48 22 12 22C17.52 22 22 17.52 22 12C22 6.48 17.52 2 12 2ZM13 17H11V15H13V17ZM13 13H11V7H13V13Z" />
  <circle cx="12" cy="12" r="10" fill="none" stroke="#0F766E" stroke-width="2"/>
  <path d="M12 6C8.69 6 6 8.69 6 12C6 15.31 8.69 18 12 18C15.31 18 18 15.31 18 12C18 8.69 15.31 6 12 6ZM12 16C9.79 16 8 14.21 8 12C8 9.79 9.79 8 12 8C14.21 8 16 9.79 16 12C16 14.21 14.21 16 12 16Z" fill="#3B82F6" opacity="0.3"/>
</svg>
